<mxfile host="app.diagrams.net" agent="Mozilla/5.0 (Windows NT 10.0; Win64; x64) AppleWebKit/537.36 (KHTML, like Gecko) Chrome/138.0.0.0 YaBrowser/25.8.0.0 Safari/537.36" version="28.2.5">
  <diagram name="Страница — 1" id="znuGKAmU8M9IKftoyqtT">
    <mxGraphModel dx="752" dy="408" grid="1" gridSize="10" guides="1" tooltips="1" connect="1" arrows="1" fold="1" page="1" pageScale="1" pageWidth="2339" pageHeight="3300" math="0" shadow="0">
      <root>
        <mxCell id="0" />
        <mxCell id="1" parent="0" />
        <mxCell id="ddzU1_DDrgTASf7o6CdR-7" style="edgeStyle=orthogonalEdgeStyle;rounded=0;orthogonalLoop=1;jettySize=auto;html=1;exitX=0.5;exitY=1;exitDx=0;exitDy=0;entryX=0.5;entryY=0;entryDx=0;entryDy=0;strokeWidth=2;endArrow=none;endFill=0;" parent="1" source="ddzU1_DDrgTASf7o6CdR-1" target="ddzU1_DDrgTASf7o6CdR-4" edge="1">
          <mxGeometry relative="1" as="geometry" />
        </mxCell>
        <mxCell id="ddzU1_DDrgTASf7o6CdR-1" value="Начало" style="rounded=1;whiteSpace=wrap;html=1;arcSize=50;" parent="1" vertex="1">
          <mxGeometry x="630" y="120" width="120" height="60" as="geometry" />
        </mxCell>
        <mxCell id="ddzU1_DDrgTASf7o6CdR-2" value="Конец" style="rounded=1;whiteSpace=wrap;html=1;arcSize=50;" parent="1" vertex="1">
          <mxGeometry x="630.01" y="500" width="120" height="60" as="geometry" />
        </mxCell>
        <mxCell id="ddzU1_DDrgTASf7o6CdR-9" style="edgeStyle=orthogonalEdgeStyle;rounded=0;orthogonalLoop=1;jettySize=auto;html=1;exitX=0.5;exitY=1;exitDx=0;exitDy=0;entryX=0.5;entryY=0;entryDx=0;entryDy=0;strokeWidth=2;endArrow=none;endFill=0;" parent="1" source="ddzU1_DDrgTASf7o6CdR-3" target="ddzU1_DDrgTASf7o6CdR-5" edge="1">
          <mxGeometry relative="1" as="geometry" />
        </mxCell>
        <mxCell id="ddzU1_DDrgTASf7o6CdR-3" value="Значения x, y, z" style="shape=parallelogram;perimeter=parallelogramPerimeter;whiteSpace=wrap;html=1;fixedSize=1;" parent="1" vertex="1">
          <mxGeometry x="601.24" y="280" width="177.51" height="50" as="geometry" />
        </mxCell>
        <mxCell id="ddzU1_DDrgTASf7o6CdR-8" style="edgeStyle=orthogonalEdgeStyle;rounded=0;orthogonalLoop=1;jettySize=auto;html=1;exitX=0.5;exitY=1;exitDx=0;exitDy=0;entryX=0.5;entryY=0;entryDx=0;entryDy=0;strokeWidth=2;endArrow=none;endFill=0;" parent="1" source="ddzU1_DDrgTASf7o6CdR-4" target="ddzU1_DDrgTASf7o6CdR-3" edge="1">
          <mxGeometry relative="1" as="geometry" />
        </mxCell>
        <mxCell id="ddzU1_DDrgTASf7o6CdR-4" value="&amp;nbsp;gamma, x, y, z;" style="rounded=0;whiteSpace=wrap;html=1;" parent="1" vertex="1">
          <mxGeometry x="630" y="200" width="120" height="60" as="geometry" />
        </mxCell>
        <mxCell id="ddzU1_DDrgTASf7o6CdR-10" style="edgeStyle=orthogonalEdgeStyle;rounded=0;orthogonalLoop=1;jettySize=auto;html=1;exitX=0.5;exitY=1;exitDx=0;exitDy=0;entryX=0.5;entryY=0;entryDx=0;entryDy=0;endArrow=none;endFill=0;strokeWidth=2;" parent="1" target="ddzU1_DDrgTASf7o6CdR-6" edge="1">
          <mxGeometry relative="1" as="geometry">
            <mxPoint x="690.0150000000001" y="410" as="sourcePoint" />
          </mxGeometry>
        </mxCell>
        <mxCell id="ddzU1_DDrgTASf7o6CdR-5" value="" style="rounded=0;whiteSpace=wrap;html=1;" parent="1" vertex="1">
          <mxGeometry x="560" y="350" width="260" height="60" as="geometry" />
        </mxCell>
        <mxCell id="ddzU1_DDrgTASf7o6CdR-11" style="edgeStyle=orthogonalEdgeStyle;rounded=0;orthogonalLoop=1;jettySize=auto;html=1;exitX=0.5;exitY=1;exitDx=0;exitDy=0;entryX=0.5;entryY=0;entryDx=0;entryDy=0;" parent="1" source="ddzU1_DDrgTASf7o6CdR-6" target="ddzU1_DDrgTASf7o6CdR-2" edge="1">
          <mxGeometry relative="1" as="geometry" />
        </mxCell>
        <mxCell id="ddzU1_DDrgTASf7o6CdR-12" value="" style="edgeStyle=orthogonalEdgeStyle;rounded=0;orthogonalLoop=1;jettySize=auto;html=1;strokeWidth=2;endArrow=none;endFill=0;" parent="1" source="ddzU1_DDrgTASf7o6CdR-6" target="ddzU1_DDrgTASf7o6CdR-2" edge="1">
          <mxGeometry relative="1" as="geometry" />
        </mxCell>
        <mxCell id="ddzU1_DDrgTASf7o6CdR-6" value="Результат" style="shape=parallelogram;perimeter=parallelogramPerimeter;whiteSpace=wrap;html=1;fixedSize=1;" parent="1" vertex="1">
          <mxGeometry x="601.25" y="430" width="177.51" height="50" as="geometry" />
        </mxCell>
        <mxCell id="r-bsara-Y68i6xREC7Yq-2" value="" style="shape=image;verticalLabelPosition=bottom;labelBackgroundColor=default;verticalAlign=top;aspect=fixed;imageAspect=0;image=data:image/png,iVBORw0KGgoAAAANSUhEUgAAAuAAAAB9CAIAAABs20HqAAAgAElEQVR4Ae19d1wTS9T2JqH33gQEUYqADcEGgu1iBbF3xWvDgqjYC15FroK994JdsV2wYAOxYcUCqKByBWnSSyCk7H68zvvOt3c3CQnNgLN/5Dc7O3PmzDOb3WfPnDmDEehACCAEEAIIAYQAQgAhIGMIYDKmD1IHIYAQQAggBBACCAGEAIEICroJEAIIAYQAQgAhgBCQOQQQQZG5IUEKIQQQAggBhABCACGACAq6BxACCAGEAEIAIYAQqGcEcBz//v17WFhY586d9fT0WrduPW3atNevX3M4HAlbQgRFQqBQMYQAQgAhgBBACCAEJEXg1atX7u7ucnJy8vLyLBYL+3no6+vv2rWrvLxcEimIoEiCEiqDEEAIIAQQAvWDwPPnz0NDQ799+1Y/4pqFFDabvX///ufPnzeL3vxPJ378+OHt7W1mZhYaGhofH//48ePZs2erq6tjGGZmZnbjxg1JeooIiiQooTIIAYQAQgAhUD8IbNmyRVFRMSYmpn7ENQspP378sLKy2rp1a7Pozf90Iioqyt3dPSkpCfaIw+EEBwezWCwGg/Hnn38KBAJ4SVQCERRRyKB8hABCACGAEKh/BBBBoWPazAgKl8s9cuTIzZs3KT3Nz893cXHBMMzFxaWqqopylX6KCAodE5SDEEAIIAQQAg2FACIodGSbGUERCAQ/fvyoqKig93Tt2rUYhnXu3FkSV1lEUOgAohyEAEIAIYAQaCgEEEGhI9vMCAq9gzBn//79GIZ5eXnx+XyYKSqBCIooZFA+QgAhgBBACNQ/Aoig0DH9TQgKjuMBAQHKyspbtmzBcZyOAyUHERQKIOgUIYAQQAggBBoQAURQ6OD+JgSloKCgffv27dq1S0hIoINAz0EEhY4JykEIIAQQAggBKRAQCAQVFRXPnz8/ePDgjh07Ll++/P37dy6XK/QrGREUOrK/CUE5f/68vLx8SEgIj8ejg0DPQQSFjgnKQQggBBACCAGJEMBx/MuXL6tXr3Z0dJSTkwPBuDAMk5OTGzRoUGRkJN0XEhEUOrK/A0H59u3bgAEDvLy8cnNz6QgIzUEERSgsKBMhgBBACCAEakbgw4cPnp6eTCYTUhNywsTEJDw8nCIFERQKICCsWTOLg0LpI4/HCwkJGTRoUFpaGuWSmFNEUMSAgy4hBBACCAGEgDgEfHx8MAwzNzdfunTpyZMnd+/e3bFjRzJHkZeX//jxI1kEIihkNEC62VtQ7ty5061bt1evXtH7LiYHERQx4KBLCIFaIlBQUBAbG/vu3bta1kfVEAIyjwCfzw8LCzM3N9+5cyc56FZVVdXp06dbtmwJacqkSZPIYUMRQaGPbTMmKDwe7/bt2z179oyKiiLfBnQQ6DmIoNAxQTkIgdojUFlZefbs2aFDh+rr6y9cuLD2glBNhIBsI/D8+XNTU9OrV69yuVyKpnw+//Tp05CgmJubk90OEEGhwNWMp3gEAsG9e/eGDx8eHR0toWMsGRxEUMhooDRCoPYICASC69evOzg4yMvLYxjGZDIRQak9mqimzCNw7NixiIgIoet0CIIQCAS2traAoxgZGX39+hV2CBEUCAVMNFcLSlJS0oABA+7evUu5T3g83t9//13jhpGIoMA7BCUQArVEoKqq6urVqxMnTrSxsYELGRBBqSWaqFrDI5CRkbF///4DBw40aFMBAQGAoNjb27PZbNgWIigQCpioO0Hh8/kPHjzYsWNHfHw8FPsLE1wuNyYmpmPHjoGBgTExMQ//74iLi4uKipo2bdqwYcMqKyvFa4gIinh80FWEQM0IVFRU7NmzJyYm5sWLF3PnzgUPZURQagYOlfhFCNy7d09LS0tXV7dB21+yZAn4LwQHB5MbQgSFjAZI152gcDic+fPnYxgWFBREl9/IOTweLyIiwtbWlsViaWpqapEODQ0NBQUFZWXly5cv16gVIig1QoQKIARqRgA6f33+/FlBQQFN8dQMGSrx6xBoHILi7e2NYVjbtm0pm8YhgkIf+WZGUJKTk62trRkMBmCo9F9HR8fi4mI6DpQcRFAogKBThECdEMjKyjIzM0MEpU4g/paVq6qq8vPzv379+ubNm5iYmNjYWLoBvLKy8v3792fPnr1y5UpWVlatcWoEgpKfn6+trW1qahoTE0PRUwxB4XA4eXl5AIR79+7duXOHHuetoqLi3bt3J0+evHz5cnZ2NkX4Lz+tqKjIyMgAg5iXlydUn/T09AsXLty7d6+srAwUkEGCwufzi4uL09PTk5KSnjx5cvPmTXp3BAJBWlpaZGTk6dOn3717R3E0Edp3qTIRQZEKLlQYIVADAjk5Oa1bt0YEpQaY0OX/IvD27dv58+cPGTLEycnJ2NiYyWQaGxtfu3aNXKqwsHDDhg1g+S6TyfTy8iJflSrd0ASFw+EsWLBAT0/v5MmT9DU+oghKamrqnDlzBg8e7OTkZGRkxGQyDQwMLl26BM2TBEGUl5cHBwcDEOTl5WfMmCFVxxuucGFhYXR0dGhoqK+vr5ubm7GxsZqa2uHDh4W+s729vZlMpoqKyurVq0EBWSMo+fn569evHzlyZI8ePSwtLZWUlJSVlVesWEEGsKqqKiIiokuXLiBMn6WlpVRB2MiiRKURQRGFDMpHCNQGgZycHGtra0RQaoPdb1ynuLg4NTU1ISEhLCzM0NAQmMQ7duxIfr3NmTNHSUkJWstVVFRqDViDEhQul7tlyxY1NbXdu3fT2QlBEKIISnl5+adPnxISEkJDQ83NzUFP+/Tp8+PHD9DTqqqq8ePHk0Ho3LlzrUGo34pPnz6dNGnSyJEj27RpA6c2hg4dSo4QA1tUVlYGvWvVqlVGRka9LDOuXx8UDofz5cuX5OTkc+fOOTs7A21VVFQ+ffoEe3Hq1Cl9fX14Q2IYRreWwcK1SyCCUjvcUC2EgHAEcnNzwepK5CQrHCCUWxMCd+/eVVFRAc/9qKgogiCqqqpWrVplYWGxbt26nTt3DhgwwMnJiR5CvibB//96QxAUHMfLy8tTUlIWLlwI9FdSUpo/f/6///77/xv+mRJFUMjFrl27pqWlhWGYvLx8bGwsQRBsNnv27NktW7b866+/Nm/e3Lt37y5dupw9e5ZcSxbSbDbbz88PDJ+ZmRnF/wZoOGHCBECzTExM3r9/L4MEhYxkQUEB+OjCMGzUqFH4z+PBgwfGxsYzZsw4duzYxIkTO3bsOHPmTKFsjCxK2jQiKNIihsojBMQhgAiKOHTQNQkQwHHc19cXvOEGDBggEAhOnTplZGR0+/ZtPp8PQozUIuYVueV6JygVFRW7d++eOnVqq1atyJ/UTCazZ8+elA9rSQgKl8sdMmQIEDV79mw+nx8eHu7i4hIXFwesSjiOCzXPkLv5q9IPHz4EmrNYrJycHLoaOTk527dvNzU1tbKyAiHsZG2Kh6Lz7du3gVlIUVExJycnMTGxVatWYWFh5eXlBEGAsSBb+yjVa32KCEqtoUMVEQJCEEAERQgoKEtKBJ48eQLecJqamjExMV26dLl582Y9vgDqnaBwOJyoqKj9+/dPnTrVyMiIzFEwDLOxsUlOToYYSEJQCII4c+YMkGNqapqeng5ipUMhspyodpSB8ZCeP38uVFUul+vi4jJ27FgwrDJOUNhstpWVFRiOY8eOTZo0yc/Pj+7ELbSndclEBKUu6KG6CAEqAoigUBFB59IjUFBQAPxAWSyWk5PT8uXLpZfxP9+1oo67d+9qamrq6uqKKgDya9EoQRClpaVhYWGtWrWCrhhMJnPevHlwPY6EBKWoqAis2McwrF+/foGBgY3wRqxdl+m14JzI+fPn6VcJgnj8+LG5ufn9+/fBVQkJipjxqqys9Pf3B3FQxBSrHc3l8XgTJkwABMXa2trT05MceU9oB+slExGUeoERCUEI/C8CiKCgW6HuCLDZ7OHDh4P3QceOHcmeiRIK//Tp0zrRh6+vr5KSkoqKiugi67Zt21ZYWChhc/RiiYmJYK0K6IWzszNc4iEhQSEIomfPnqC6jY1NSkoKvRXxOTt37gyp8yG+CVFXPT09geahoaH0MqWlpdOmTZsyZQqkCxISlHPnzokasqCgoK5du2IY1qtXL1Fl1q1bd/XqVbo+NebgOL5z506wWkdPT+/SpUtQ8xrr1qUAIih1QQ/VRQhQEUAEhYoIOpceAT6fHxISAt5wgwYNkiSkFaWRa9eugeq1/m3RosXnz58pYqU6TU1NJS8AefToEaguOUEJDg4G+nfu3Jm82FhCNYyNjWvdfVhRwrYoxaZPnw4kzJs3j3KJIIjo6GgnJ6ekpCR4SUKC4uXlBRWrXWLy5MmwUakSt2/f1tPTwzCsTZs2L1++lKpurQsjglJr6FBFhIAQBBBBEQIKypIegUuXLmlqamIYVjsLyrt37/xFHz4+PgoKCoqKiqKL+K9evZoemEuqfggEgtDQULB3JoZh8NtdcoLy8OFD8NVubm5e48ZydN2cnJzM6nzQxUqSs379ekAgvL29KeXLysratWu3YcMGsqezhATlwIEDooZs9uzZ7du3xzDMxcVFVBl/f/+TJ09S9JHw9OPHj0C+pqbmP//8I2GtOhZDBKWOAKLqCIH/IIAIyn/gQCe1QkAgEBw/flxdXR3DMD09PcoqmFqJ/E+leneS/Y900smTJ09MTEzAqxruvSI5Qbl48SJwQ9HR0blx4wZJsKwnw8PDQa87depE1rWysnLu3Lmenp6ZmZnkfAkJCrkKJV2/cVAowgmCSEhIsLGxwTCMwWCEhobWwqBFl1ljDiIoNUKECkiKQGxs7KtXryQtXVO5CxcuUP7DNdWQieuIoMjEMNSkRHl5eURERB0tBLCRtLS0y5cv1+OsfGlpqZeXFwiVwWQyDx48CNuql0SjEZT8/Hw7OzsQzuTBgwdAeQkJSkVFhbOzM2Bp8vLyYWFh9dL3xhESGxsLCIq+vj5sEcfxM2fOWFtbk9c0gasyTlCq17cHBQUZGBiATo0ZM6Zx1ngjggJvHpSoPQJcLvfUqVMtW7aMjo6uvZT/1ly3bp2ent6TJ08ah6r/t/HanyGCUnvsGqUmjuOFhYVDhgzx9vaGIUrr2HJGRoaLi8vIkSOLiorqKApEldi1a9fIkSNHjBgB3gfTpk2ru1iyhEYjKFwuF8wLmJmZvXv3DuggCUERCARLly7t06cPDHr2559/Cg16Ru6X7KTT0tLA2GEYBpcvpaamurq63rx5k66njBOU1NTULl26rFmzBqzMat26NVrFQx9ElCOLCOTm5i5fvrxly5a3bt2qRzLB4XDWr1/ftm3bs2fPkidrZRECkk6IoJDAkLkkn89/8uRJ165dJ06c+P3793rU7+PHj3369Bk2bFgtVtxQ1IiPj7ewsIiNjT18+DB4yTk4OFDK1PG00QgKtKB4eXnl5+cDtWskKDiO37t3z9raOiEhYf/+/SAwvKuraxMyqVY/vlgsFhg+EMy+oqJixowZgYGBQmmWLBOU/Px8V1fXjRs3fv78GbgEMZnMDx8+1PEmlKQ6sqBIghIqIxIBLpcbGBhobm4eGxtbjyZu0B6Px1u+fLmpqakMBrQWhQgiKKKQkYX85ORkJyenoUOH1tfkDrlTnz59cnZ27tmzZ0FBATlfqnROTk6/fv1CQkJ4PF5SUhJ4w8nLy5O37X379m0tPEbJajQaQYmOjtbX11dRUTlw4AD8eqmRoOTk5AwbNmz//v0EQTx48ADMLOjr64Oo8KAjcXFx4MVP7pdMpXV1dcHwvXz5Esfx1atX9+3bNz09XaiSMktQeDzeqlWrwF3N5/PbtGkDOrV161bYkZycnNevX8Pxhfl1TyCCUncMf18JOI4fOnRIWVm5LtuCiIcvJyfH09OTxWI9ffpUfEkZuYoIiowMBF0NDofTpUuXTp061a/thNzQ5cuXdXR03N3dJQ8pRqb1PB4vJCRkxIgRQCaO42BhJ4Zhhw4dApnl5eUDBw6so7NXvRAUHMer3158Pp/cBTIaYE9jBoPh4uJCNhvQCQpZAo7jmzdvnjhxIgijnpubC2OYRkREAPkZGRktW7ZsnI94co+kSgOX0uplNTdu3Lh8+bK+vn5qaqooCTJFUMjDER0d3b59e8i5AwICAEFxc3MDfREIBAsXLjxy5Ai5lqhuSpuPCIq0iKHy/4sAjuMREREKCgqjR4+uS0CnGgF98uSJoaGho6MjnMOuscovLIAIyi8EX0zTxcXFY8aM0dTUPH36dEM8SUHTVVVVS5YskZOTW7x4cVlZmRh9wKWsrKzjx4+fPn06MzNTIBBcunSpV69e5PAYcFMed3d3Dofz+fPnIUOG7NixA2zKU6N8UQXqTlA4HM7Zs2e9vb19fX2B/pS2Kisr9+7dq6Wl5ezsTImnQiEo2dnZJ06cOH36dHZ2NpfLBdvnQgaG4/igQYPAS3HixIkCgSAlJWX48OGQsVHalZ1TV1dXoLa/v3+fPn0iIyPF6CYjBIXNZv/zzz/79u17//49n8//8OHDgAEDTp8+DTWHzr9ycnLfvn2rjvYbEhIyceJEOH8HS9ZLAhGUeoHxdxSSkpLi7OysrKx89+7dBu1/9eskKCiIxWL9+eef4KOqQZuro3BEUOoIYENUFwgEBw8eVFZW7tOnT734sYpRMjc318LCQk9PD2xELKYkj8cLDg5WUFBQUlIaNGjQggULbGxsTp48Sfa4Ir8PJk+e3KNHj3Xr1klunhHVet0JypcvX1xcXMALWE1NzdXVdcuWLR8/fuRyuaWlpTdu3Bg3bpyOjo6Pjw95XgboQyEomzZtUlJSUlBQGDhw4Jw5c0xMTC5evEieLzh27BhoSENDw8/Pr1evXmFhYeQCorr5a/N9fHyA2iYmJhs2bBC/7EVGCMqtW7eMjY2ZTGaHDh1WrFjRpUuXuXPnlpaWQiQrKystLCxAv/744w8fH58BAwY0nEkSERSIPEpIgQCPx1u7di2Tyfzjjz+kqFbbolwu18jISF5eHq5UrK2kBq+HCEqDQyx9A1+/fu3cuTOGYTWSBullC6lx6tQpDMO6d+8u5Bopi8vlzps3DzzrQXiJw4cPU6w7FRUVjo6OoIycnNySJUvI9IUkTLpk3QlKWVnZsGHDoPJAfyaTyfp5MJlMdXX10NDQqqoqumYUghIYGAjlKCsrw3husGJlZaWGhgYoIy8vv2DBgsZZQgIVqF1ixowZQGcfHx/yO16oNBkhKKdPn4ZQMxgMb29v8twc0Bzs+AO6VkePK6FQkDMRQSGjgdKSIpCcnGxsbMxgMB4+fChpnbqVCwkJYTAY9vb2DeHeWDfV/lM7JyendevW4HkdEBDwn2vo5Bch8NdffzEYDFtb28b57C4tLbW3t8cwbNOmTRTCQQHg5cuX3t7enTp1Gjp0qNDVpziOR0ZGenh4dO/efffu3fVlQfzy5Uu18SYkJISij1SnOTk5y5Yt8/T07NKlS8eOHTt06ODi4tKvXz9fX9/jx4+LsVRRCMqbN298fHw6duw4dOhQUSsBIyMj3d3d3dzc9uzZA1ftSqVt4xdesWIFg8Fwd3cnOziLUqPuBIXH412/fn3VqlX37t0T1UqN+Xl5eXPnznVycvLw8NiyZYtQNvzx48dRo0Y5OTkFBASI8vmtsSEJCyCCIiFQqNh/EJg0aRKGYVZWVuLtlv+pU7eT58+fA4fB9evX101Sw9bOysoyNzcHBGXWrFni308NqwqS/hOB79+/g2Ug69ataxxIeDwesApoa2vXuOq4pKTky5cvYr6wBQJBZmZmVlZW4ygvbSsVFRXp6empP49v375JQqEoBIUgiKKiotTUVDFeOwKBIDs7u77i1kjbx9qVX7ZsmYeHB9wiUbyQuhMU8fIlv8rlcr98+fLjxw8xz67CwsKvX78KpS+SNyRJyd+FoGRmZu7YsWOtiGPdunUy+/+XZBQbucz79+/BEv+5c+c2WtMZGRnA6czOzq6haXtdOpWUlAQ3Hxk6dKiY78i6tILqSo4AsEjLycnRw3dKLkTakmfPnlVWVmYwGMuWLZO2brMvTycoza/LiYmJTk5OL168kLBrskNQJFS4cYr9LgRl27ZtMGwOnO+ECTc3t9zc3MZBvKm3wufzZ86cCWJX02eLG653HA5n1qxZDAZDTU2NPlXfcO1KKPnDhw8xMTFHjhwBtn1wa6mpqfn5+UVHRz99+rSkpERCUahYPSKQlpamo6ODYVi1u18DLTQQqu2rV69AxIguXbpI+A0tVE6zzGzeBAUEA7S1tYV7D0kyiIigCEXptyAoZWVltra2kI5QEkpKSlu2bKnjsj2h4DbLzC9fvoDNNSwtLd++fduYfTxw4ACIKTlu3DhZe99fu3YtODh4zZo1q2lHUFDQrl27Gs7RvTGHoMm1tXv3brDb3KxZs+q++EXy7hcXF/fu3RvDMDU1NaleVJI30XRLNmOCguP4o0eP+vbte+HCBTFTJPSxQwSFjglBEL8FQQkODgY7CFCoCTi1srKqcZ5YKHa/Z+aFCxe0tLQwDHNzc2vkqZa4uDjwNWxpaSlrX6V8Pp8n+hATzOr3vIsap9fl5eVjxowB/kCbN2+W6oVRdw2BoRHDsAULFjSOc27ddW4cCc2MoJDXuXz+/LlDhw7Hjx+X9mZDBEXovdf8CUpaWpqysnLPnj1fvXqVJuxoQvs7CB1CSmZFRcWnT58ayHe1qqpq0aJFgNiNGjVKjGcfRat6OU1PTzc2NgatX7lypV5kIiHNGIHk5GQHBwcMw9TV1c+dO9fIPd26dSu4Vx0cHJrKwpPGgajZEJSCggJfX19FRcWpU6cWFhZGRUW1bt06LCxM6OJq8dgigiIUn2ZOUHg83tKlSzEMO3LkiND+N7/MCxcujBo1qoF8M/Py8oCnKoPB8Pf3b+TvQi6XC6NHjx49uvmNHepR/SLwzz//KCkpYRhmYmISExNTv8JrlBYVFQUICovFktxZskaxzaBAsyEoJ06cAJvnqaioDBs2rG3btkeOHKkFOyEIAhEUoTd2Myco79+/d3BwaNOmTZMI7CN0hKTKzMzMNDc3X7JkSQNZUNLS0rS1tYGHbGhoqFS61UthGPRaV1dXWiNqvSiAhDQhBNavXw8ogo2NDTl+fON0ITk5GbSOYdiaNWsap9Em0UqzISh79+6FQ+zo6BgTE1PrbzZEUITeus2ZoAgEgtDQUBaLtXv37uqYQs3eypqdne3s7Kyurt5we//euXMH/CGVlZVPnDgh9JZq0MyFCxfCJ4KMbxXWoDgg4ZIgMHToUHC3dOjQofHjCJSXl0PXtx49ekii8G9SptkQlJKSkkWLFnl5eR08eLCO+5EhgiL05m/OBCU/Px+sN7GwsPDw8Jg7d+7hw4c/fvxYa5IrFEEZyfz+/fukSZPk5OTatGnTcJvqrV69Gjzx1dTUrl271vh937JlCyQohw8fbnwFfkmLAoGgrKysqKiorKxMQrsRm80mM/LqHUdLS0trXKqG4zibzS4qKqqoqJCwIQogVVVVQM/a/ctwHC8tLS0uLpY2BlT1xrklJSXkLvN4PBAxD6wxbmR/KQCLpqYmuF2VlZXFRCGjYNjsT5sNQanHkUIERSiY4ghK9bZAx48fHzZs2KxZs+DeknQpKSkpl/7vID8g6CUbOYe+eEdFRaV169aLFi2qS7h0Pp8v9FkPNh8X00f6Ug4+ny8JYhwOp7i4WMyszdu3b93d3cFyyt69e0siE7yxioqKOByO5K+i/v37gweuhoaGtNvi8Pl8US8toIyoq2RIjx8/DgnKtGnTyJeaX1ogEHz8+DE0NNTNzc3Ozs7GxsbOzq5fv35BQUFi1k9lZWX99ddfTk5OIEoNjuPR0dH9+vWztbX19vb+8uWLUKDy8/O3bds2ePBge3t7GxsbR0fHKVOm3LhxQ8xdR5bD4XCuXbs2YcKEDh06AD09PT0PHz4s+WdlSkpKSEiIq6ur7c+jQ4cO06dPj46OFs9UcBz/9OnT0qVL27Zta2tra29vP2rUqGPHjqWmpq5Zswb4B2AY1rNnT0nuLnKPxLTL5XIlZBsgFAq4Y5EbCoQXERQIBUwgggKhICdEEpSKior58+fD4Gby8vJCvcy4XC7cMqpr165k0b82nZGRAfzj4PuMnDA0NIyMjCQvD6tRWzabnZCQsHDhQgsLCwMDg5YtW65cubLai/vbt2++vr4uLi5aWlpw7Wt5eXl6enpycvKVK1fWrVs3YsQIa2vrmTNnwqdeaWlpRESEnZ2dvLz8wYMH6a0XFxcnJCSsX7++c+fOJiYm5ubmFhYWQ4cOvX79OnxnVFVVPX78ePz48fBBDD4WQSSOI0eOUJhHRUVFYmLixo0be/ToYWVlZWpqamxsrKGh0b59+9DQ0PT09JL/HvS4ETCcjLa2do1BUIqKit6+fXvq1KmFCxf26tVLR0fH19eXgjmXy3369Km7uzuLxTIwMIiKiqLoTEHm+vXrcBz79OlDudqcTouLi4OCghQVFTU0NNzd3VevXh0YGGhrawsiwbBYrJ07d0Imyufz8/Pz4+PjfX194W0fHh7O5XIPHjwIloUD3MzNzaslk4EqLy8/efKkubm5rq5uly5dJk6c6OnpaWRkBG4qV1fXxMREMW/3qqqqt2/fdu/evXpu0cbGZuzYscOHD7eysgLhdA0NDW/cuCHGbRDH8aysrIULF6qpqRkbG/fv39/Pz2/gwIGGhoZQgRcvXsB7nqx5VVVVeHi4jo5Oq1at/P39t27dCiBSV1eHNwlIDB06lFxRaDotLS02Nnbbtm2TJk1ycHDQ1ta+f/8+5W4sKirasmWLkZERhmE+Pj45OTlCRcFM4FEOdGjMqIZQAdlMIIJCHxdEUOiYiIuD8vLlS2ggBX+wXr160aNjvXr1qlWrVhiGqaio/BKnBKG9Igji6dOnc+bMmTx5sqenp4ODA/kZDbqjqam5Zs0aSXaOIAji33//nfN8jsYAACAASURBVDt3rqGhoY+Pz5EjR+Lj46OiosaNG/f333+DVUKAGUBlYmNj58+fP3bsWPAswzBMQUHh2LFjoEB6evrMmTMhq+jSpQusSBBERUXFtWvXfHx8LCwsJkyYcPTo0cTExKysrI8fP86cOVNLS+vo0aOgfEpKyqhRo3x8fNzc3ECnMAwbNGiQz89j9+7dZLFv3ryZM2eOgYGBurr6nDlzbt++/eXLl6SkpK1bt4IRtLOzGzFixEjScfHiRbIEgUCgpqYGGtLT0/v333/JV+npO3fuzJgxY8yYMR07doTqbdy4ET70S0tLt2/fDrxuQYExY8bAly5dIEEQz549g6Ls7e1rnLMQKkT2MwsLC6dOnQrWx+7atQsiVlZWtnTpUsBRDAwMrl27Bi69efPG39+/S5cuqqqqEJ/w8PDIyEgbGxvyH1lZWTk+Ph4iUL3Jy4wZM1RVVfv373/79m0I/rNnzzp06AAiiHTt2jU1NRVWISfKy8t37dqlra1tZWV18OBBSH3y8vImTJgANNHT0zt79qyokXr79m3Pnj0ZDMaIESMg5eXz+U+fPp0yZQogW2ZmZidOnKCznGPHjikpKfXv3//r169Qq4qKin379rVo0QLigGGYJMa2ZcuW+fr6Dh48GGz5hGGYnp4e2c8pMTFx+PDh0K1EW1s7IiICtis0MXz4cKjGgQMHhJb5DTMRQaEPOiIodEzEEZSTJ0/KyckNHz58586do0ePVlBQMDAwuHXrFlmKQCDYvn07mFlwdXX99u0b+arQtEAgKC8vL63bIephR24Rx3Eul1teXp6bm/v58+dnz55t2rTJzMwMPi8wDFNVVZVkp4yYmBh7e/vqTajXrl1bUFAAW3n16tXAgQP19fWBzC1btsBLbDa7oKCgqKhoz5494Kqamhp4jLLZ7MGDBwPQwKWRI0fCigUFBf7+/np6eqamphcvXiRbkvl8fnBwMIvFMjExARPqVVVVBT8PuFrBzMwsLy8PZJJtFQ8ePOjQoQODwVBRUdm1axfZNMLj8fbv3w8fu2R8oqOjoWIEQRQWFsKr+vr6NW7cxeVyKyoqSkpKvn79Cl63GIZZW1uDWQYul7tlyxYdHR0vL6/OnTvLy8uzWKwNGzaIH9wvX75AHaq/myWfQSB3RMbTOI6fOXMGuC84OzuT374EQbx//x5G058xYwYwLRQWFqampn7+/HnhwoVwJ6ANGzbY29sfOnQoKSlpwYIFIN/BwQHSiKKioj///JPJZDo4OLx79w7SIIIgquPOrVy5EhhQmUym0E2XcBw/fvw4CJ135swZaB0E8D5+/BhSz65duwr1US0uLu7Tpw+LxbKxsaFH2s3NzYWEwMDAgLJHa25ubpcuXZSVlU+ePEkZUA6Hs2zZMvgBAEKlUcrQTysqKthsdl5e3uPHjyGlW7BgAYDl33///eOPPywtLb29vUEwntatW79+/Zouh5zj5+cHb9e//vqLfOl3ToeHh3fu3BnNeZHvgcLCwsGDB9NvZnKZ3zAtcopn/vz5I0eOBC85Ho83f/58BoOxZs0a8vujuLjY09MTLDrdvHmzJPAlJydDowL860qboDyqJGkXlOHz+WvXrqVYU65cuUJ+NJOl4Tj+7NmzNm3aMJnM+fPnw+9LUCYvLw+uelVSUiJ/bEEhR48eBb1zdXUlCILD4YwePXrAgAEPHz4EdgsWi3XhwgVQvry8fOzYsRiG6ejovHnzBgoBiaioKPDprKqqSn7cCwQCFxcX0MqCBQsotQiCSE9P79atG/gaHj9+PN0MVlhYKCcnByQMHDhw2/8dZB5DEMSHDx/gSBkYGEhFDlJSUsD0kJqaGrAkPXv2rHXr1uAbFMfx9PT0tLQ0UQMBO5Wfnw91MDc3h3NqsEAzSFRWVs6ZMwd0s0ePHhTeD/90GIZ5enpSxigyMhLe3tra2pB/CwSCly9fhoeHk02GZ8+eBRYXoX/eI0eOQHuMiYkJHdi8vDwLCwsMw/r27Uu/mpKS0rZtW9ALOTm5xMREShmBQDB//nxwW4pyuH769Kmuri4QYm5uTnZ0jYyM1NPTU1ZWPnXqFEUyQRBpaWkqKirwVlm8eDG9jKgcHMd37doFyFmXLl2+ffvG5/MDAgJ69+4NfNcqKys/fPhAVkaUqBUrVkAdhJI8URVRPkIAISDOgjJr1qx9+/bBF0ZZWVnr1q0pu7O+efMG2PytrKzoH0BC8f38+TPw+LOrw/H06VOhwiXJrKqqioiIaN++PXxwtG/fXpTL4devXz08PDAMc3V1pc83FxcXQ/+bbt26CXW8nThxImjo8OHDlZWVGzduHDJkSHZ2NkEQu3btsrGxGT9+PIjRkpGRMX78eAzDWrRo8c8//9D70rVrVyCqZ8+eZJqYmpoKLOFycnJCkZk7dy6oqKWlJYrbweUGf/zxB71pkPP27VsImoGBgVSx4Nhs9rRp0xg/j/nz56elpXXv3n3btm10u72o1kF+UVER1MHMzEzU1IN4ITJ+taqqKjAwENi0+vXrB+4WqHO1WyhgsRiGOTs7UwL8PHjwAM5QuLm5Ua5CIQRB8Hg8wGtZLNbHjx/Jl0D6zZs3jo6OgEB4e3vTC0ybNg2MhVB6AcwzgPhaW1vTqeSLFy+AHdHY2JhifYFtCQQCOFWEYdiKFSvgE+nUqVNqampMJnPSpEl0zk0QBIghCzSERA1KFp948eKFlZUVhmFGRkb3798/d+6ci4sL/ZtBvBCCIOCqNwzDZs6cWWN5VAAhgBAgIyDSghIeHv7y5Uty0aCgIGtra/K7fM2aNeD/v3fvXnJJMWkOh1PtOZFct4P8FSimLVGXcBxPTk6GMUnV1NSOHz9OL1xYWOjm5sZgMCwsLISufcjPzx88eDBAgG5fIQiisrISWLlVVFQKCgoiIyPHjBkDt03mcDhJSUmA1pSUlPj5+cnJyVU/steuXSv0tR0SEiInJ+fo6Ej5GD18+DB4DdjZ2dGtGl++fIHfwe3ataN8cINel5SUwHkBGxsbOhQg5/Xr16CzGIZJS1AIgti9ezcgUt26dRs4cOD48eMl+QalKFNaWgp1MDU1ba6bKMXHx/fs2dPW1vb06dP0l/fkyZMBCB06dKBQkIcPH8I5x/3791PQI5/GxsZCI4FQH1g+n//u3bv9+/cfPXqUTi/S09OBicLIyIg8mQibwHE8IyPjzJkzO3fujI+Pp3i54jju6+sLeiHe2fnly5dwxG1tbeGH0MWLF4GtSENDw9/fn4IDQRA+Pj6worQEJT8/H2z1x2Kxpk+fbmpqGhUVJRQl2F+hib/++gvqMH36dKFlUCZCACEgCgGRBIVe4fHjxwoKCgkJCeASn88HBl5bW9ta/HXp8hs5586dO9VuJeDxQacX1b4ygYGBGIYxmcw9e/YI1e3r16/gG1RVVVUoxYFhzfr375+fnz9kyJBnz54JFXX9+nVAI9q2bUvxOYDlcRwvLy+nvK74fD58XU2fPp0yCUUQxJEjR+Ajcu3atVAaOREXFwcn7D08PMiXyGmKBYXsjkMuJiodFxcH350tWrQgu9eIqkLPJxMUMzOzz58/U8pUVVUV1/mggExpgl9Ph1T/GhzHq6qq8vLyNm3aBD1A6QTl8ePHEOTw8HCK5uRTyA9mzJhBzpcwfeLECXBfubi4QKuGhHUJgsjOznZycgISalQAuo7p6OhA4+L79++tra3hvd2yZctr166Vl5dDZaZPnw6vSjXFA3oxe/ZsUJ3BYCxZskTyrpFLkgnKrFmz4CWBQFBPNxESgxBobgjAv7C4KR74X4KJjx8/mpubwzWxjx49wjBMUVGxicbLKikpGTt2LDCke3t7U2wPT548admyJYZhnTp1EjWP8Pz5c+AuZ2lpSY8Tg+M4mFthMBibNm0aN27cnj17yFMzEFg2mw18RKq9eTZs2ADzJUn8+++/oK6iouKhQ4fIQwuqkx+R169fFyoTBoxhMBj79u0TWoYgiJSUFPjEl8RJliKnoKAAWq3+/vtvylUJT8mOuubm5hT/DIIgDh8+DJWsdeLOnTui9CksLFy/fv2q+jhOnTpFsSuIajQ9Pf3cuXPVS7rMzc379u3bunVr0LW6EBToIDJ//nxR7YrJX758OdDB1dWVfteJqQguPXz4ENKOefPmiS8P18IoKSlBYy2Xy12xYgUk1mChXJ8+fY4dO/b161fo4AKUDAgIEN8E/erp06fBw0FLSys/P59eQJIc8hQPGeebN2/Wxx2EZCAEmhsCq1evfvToEfxzSWFByczMdHNzmz17Nqjs7+8P1tbSzb9QuiwncBzfv38/cDvt1asXeU1KZWVlQEAA6+exYsUKUd/Te/fuBUZyoZP9eXl54BtRX19/6tSpI0aMEDWjcezYMfCclZeXp3u6iMcwJiYGfDFbWFg8efKEXphsQbl9+za9QF5e3h9//AFfeEI9aUCtkpISUAyswKxxmTG9rXHjxgEJtXYYzM3NhTq0atUKLkiBbTU0QcnIyOjatatDfRzz5s0TOjkC+0IQRPWMRlBQkIuLi5WVVUBAQExMTHZ29qRJk+B4UaY2njx5YmBgAK6KsaDgOA4n9chf9uSmxaehc1XtLCgXL16Ebk9+fn7i2wK2TGDODA4OhoWLi4s3btwIvWhBrxUUFFxcXHbs2PH333/DW0WSZcZQLEj8+++/8F9JN9RRCos6XbZsGdRh/fr1sFhYWJijo2N93ERIBkKgWSHQrl078nSEFASltLR0woQJ3bp1IwiipKTE0dGx2vVh7dq1tfh+gn/UX5v48OEDeJr37duX/GLOzMwES43U1NRETcrgON69e3fw9Fm9ejW9IzExMcC+YmJiYmNjI4qdEAQBozmJmV6hywc5O3fuBDq4urpSjECgQHl5OYxbJXTHsvPnz4PZJXV19RMnTogfTShKW1v7/fv3orQSlQ8D1bdt21ZUGfH5nz59gk98e3t78dqKFyXjV6tvsNu3b7ds2ZLBYHh4eJC9oKZMmQJAoFtQJCQo1cvZIIy1uOuql3SNHj0aSGjRokUtRuHkyZNwlc2UKVPEj8XWrVtBWywWKyQkhFwYx/H4+Hh7e3uyKQUUbteuHezjsGHDyLUkSfP5fEh9xJgVxYuaMWMG1OHQoUPiC6OrCAGEAAUBKQiKQCBYuXKllpYWl8uNjY01NjY2MjKSdtuX8vLyuLi4O3U7pPV+oPQZnmZnZ5uYmGAYNnXqVLLj7cWLF8FjxdLSUtQ37rVr1+AzkU5iBALBtm3bwCIFuLAWtktOpKWlwbf+9u3byZdqTOM47u3tDVQVY8Tes2cPcCe0sLB4//49fJ1UVVXdv38fTLuYmpru2LGD7sJC0QHOC2hqaj5+/JhyVfxpVlZWx44dAWhMJjMjI0N8eaFX4+Li4BPf09NTaJlmkJmfn//XX38xmUxNTc1Vq1ZRbHh1JygEQUDXaTk5OcpCITqA8J6Bl2BgGwzDyJHfYAFyAv95kHPIFhQXFxfyJXp6x44dYNCVlZWFev6WlJTs37/f3d0ddgreJCDRu3dvehfoDcEcHMdPnToFzKvVHezfvz+8JFUChiHAMCwyMlKquqgwQgAhIAVBARP8qqqqHz58AG/f6dOnC3WqEAPrp0+f7OzsdOt2SLsLjCh9MjMzjY2N5eTkNm3aRPZYHDVqFHiuiTI+p6WlQT8AS0tL+qKb0tJSOJ0xYMAAuHKHrsmFCxdgbHJpIxex2WwQJgvDMEpQNXJDbDZ7165dpqamLBbLxcVl165djx8/vnLlip+fn4mJia6u7rRp0x49ekR5C5IlwDTkQ+rq6jdv3oT5NSa4XO7GjRvHjx8PdyeB8XBrrEsuALkjhmG1m5sgS5PNNIfDCQ4OVlFRYTAY48ePp09j1QtBgbFzMAyrcfvrmJiYqKgoMlzr1q2DJEDU3wSW//fff2EYZZAZGxtramoKJCgrK4tfsr5582ZQ0tDQMDY2FoqlJDIzM48ePQpvMKhe9b+jW7duQtevUSTA07S0tL59+27YsAEIUVVVFWMBhbXoCXIM5RqjutGroxyEwG+OgHQE5f79+/r6+seOHZswYYK8vDw5XJiEOH748KFVq1ZqdTvEPKQkVAMUe/DggY6OjomJycOHD2HF6mglkDHAJQPwKkEQXC53/vz50HyyaNEi8lWQzsjIAHEUFBUVRS0CAiV3794NvQFErd+hywc5ly5dgo948cYPHMeLiopWrlxpaWnJZDKVlZU7derk4+Nz7NixoqIiMjkT1RbIh/P6qqqqML6c+Crg6ocPH7p27frp0ydo9B41apQkFSlldu/eDV88taM4FIEyePrt2zfw8lZRUREaWRISlPbt25MtfwRBSDjFQxAEjI6DYdjw4cPF3D8cDqdfv36U/8L58+fhQKioqJBduCiQ4ji+c+dOyjRoRkYGCKUPhFy5coVSi3waFBQEirVp0wY6acXFxdHjr+A4zuFwfH19KZGRO3fuLLnZVSAQhIWF/fnnn3w+H1o3a/fMMTQ0BJqzWCwxCJM7i9IIAYQAREA6gvLp0yczM7O5c+fa2tqSndKhuCaU4HK5ixcvZrFYkydPJi+mSE5Ohk9esjsx7NqZM2fatWsHCIqo2Gi3bt0Cj0gTExPxtGPnzp2QoCQlJcFW6AmBQJCRkUF2ioQGZF9fX1Aex3FyASikrKwsLi7Oz89v1KhR4eHhtVviSxBETEwM6JeioqLkE/PgnREUFMThcM6ePQvgtbCwgPG1BAJBbm6uJEb4VatWgeoMBqO5BkG5e/cu6KOGhobQhVeQoLRr167WBOX169cwfLCBgcGlS5eE4s/n848ePWpnZwcHC9xUeXl58OWNYVhAQIDQG48giOTk5O7du1MiBOI4Pm/ePPhHGz58uBgDHnTiJgdKvnz58pgxY4Ry6x8/fsAARaAJBwcHyX35ExMTe/ToAeatQDQUDMPIzrnl5eUUNOAfjZzgcrnwM8bd3Z18CaURAggBSRCQjqCUlZVZW1vb2NhYWFjQF9ZK0l6jleHz+eJfw69fv7azs2vXrh1lNcqLFy/gc5P+eoiNje3du/fUqVMBq2jTpg1Ygvj+/XvybqUwyOaUKVOEPvchDmfOnFFUVAQtivdBiYuLmz17NnTdyM/Ph26GcKPpCxcubNq0idJicXHxkiVLjIyMdu/eTfYFhjpInkhLSwOLhlgs1qpVqySpiOP45s2b+/TpA0L8JSUlAYcYXV1duOzo48ePS5cupagtVPiYMWMAVsbGxtJOLwoVKIOZ586dA31UVFTcsWMHRUM2mw2X3bZt2xYQFD6fD0g2OQ4KZVaFIofP5/fs2RPe6h07dhQaKfX+/fvVW/vS1aj2lF+wYAGsrq+vf+jQITpd+Pbtm5eX17Bhw+ge3K9fv4Y3sJKSEtmKSVa1srISrPfR19cnk4zLly+3aNEiLi6OXBimDxw4AFbYAQ0tLS2fP38Or4pJ5OTkdOvWbevWrWDeFi7DGTJkCMjh8/mHDh0i/9lFSfv27RvEh8xvRJVH+QgBhAAFAekICkEQvXr1YjAYU6dOFfXBRGngl5ympKS4urpqaWlNmTJFqANgbm6uo6OjiYkJfWI4MTERPlYmTpwI9RcIBKdOnVJXV4+Kipo1axYwJIwaNYrNZhcXF48fPx7uCcLlcuF+KDXSuMzMTBgvTpRPLo7jJ0+eNDIyunnzJnyLX79+HehpYmICxuLRo0f6+vp0j93t27eDb2WhbyDYQUkSBQUFffv2Be1OmzaNbHkiVyc7RUZGRhoZGSUnJ4MCWVlZwPsBxrTgcDhz5syB8XXIcihpHMdh/PLRo0dTrjabU4ojMJzUIAiienvIefPmQUZrZGRUWloqEAj27t0LtoIiR5KlbGdNxyciIoLsVaqlpbVv3z7oFZ6RkbF69WpVVVVnZ2d6vBmCIIqLiy0tLeGfRUlJyc/PDzJgNpsdHh7esmVLbW1tobOBYOoHVh8xYoTQLwowl8RkMim7AV++fFlHR8fFxUWo6SUqKgoaJjEM09fXp39sQEDgf6qysnLy5MlDhgyBN/bFixcB0WnXrh1YSPX27dsBAwaQA2pDOZTE/fv3Ye/q/tejCEenCIHfAQGpCcrcuXO1tbVl3CN937590Lhqb29/4cKFpKSk7OzsrKysd+/e7dixw8zMrH379kLDV/P5fPjYVVRUDAsLe/369aNHj/z9/e3t7e/evVtYWDhw4EDw6PHz86uewQkKClq4cCE0tt+8eRNcbd26NXz2ibmZZs+eDafMhw0b9ubNG/hZnJ+f//r16yVLlvTo0YOyzw5csuvs7FxSUvLgwYP+/fufO3eO3hCc7NfQ0Jg2bdqpU6eePXv2+fPn4uJiSdQjC+RyuatXrwbYDh48WGgAq7CwMFVV1R49ejx48ODOnTtubm5kR4ry8vI///wT9NfLy+vJkyeBgYEzZ86kf2GT2wXpHz9+gCCqLBbr8uXL9ALNIyc7Oxs6VzIYDC8vrzt37jx69Cg0NNTMzKx///49evSAb77ly5evWLHC09MTOGJfunQJxhfx8vKCL1qhyBQXF/v5+cF/CpCpq6vbtWvXTp06gRkcXV3dw4cPCzVW4Th++vRpGLgWVFdSUmrfvn23bt3AGns5ObkpU6YIZR5gL4gJEyYAvqWsrBwcHEyeOuHxeE+fPm3RooWiomJAQAD8f4G+AIKioKCwfPlyin8Jh8NZvHgxk8nU09MD8QKUlJSExpP88eNHjx49NDU1AwMDk5KSgoOD3dzcyF7Jz58/B/GyNTU1d+zYce/evX79+omaDqOAvH//foCJg4ODUBZFKY9OEQK/BIHKysp79+5NmDDBwsJCV1fX3t5+0aJFb9++lYWbVmqCsmrVKktLS6FmiV8CrtBG7927B9YPgwcEg8GwtbXt169f3759ra2t9fT0Zs6c+ebNG7pFGkjbs2cP/PxSUFAwNTXV0tLq3LkzWCmTnZ3dq1cvINnU1NTV1XXmzJmZmZlQE7gCs8bVDaBKdna2t7c3eE+wWKw2bdqMGzfO39/fz89vyJAhdnZ2kydPpgcdCQ0NBTpoa2tPnDixe/fuBw4cEHpLgYc1KAx+dXV1nZycRowYsXTp0nPnzsH9TWAXxCSuXbsG4kM4OTnRA1hVfxbDhUUGBga2trbLly+HH+UEQeA4DrfJVVBQMDIy8vb2psyyiWo9Pj4eNN26dWuytV9U+SaaX1VVtX37drKHh6Kiorq6uq6ublBQUEZGxubNmyGjxTCsY8eOd+/ezczMvHPnzsCBA+HUhqKi4ooVK16/fi2URwJwcnJyFi1aBKdayDcJ2Lfy2LFjYta/sNnsI0eOwO0JKdXV1dWXLFkinnp++/YN2iPV1NTGjh17+vTpZ8+eVbt/BQUFtW3bVkVFZfHixeT/F9AcEBQMw9TU1EaNGnX+/Pnc3Fw+n5+Zmblt27bqZfPa2tq7d++G0aKDgoLo/46oqCigM4PBsLOz69y5M5wtBa0UFhZCdxZtbW1jY+O9e/dK6O4KQlliGBYYGCjqUdNwtyiXy3337h2Z8DVcW01FMo/H+/Dhg3inwKbSl/rSE8fxw4cPm5ubM5lMRUVF8BpiMpkdO3YUE1C7vlqvUY50BKWkpKRDhw4tW7aU8I1SY/MNVIDH4126dAnGWYLPTS0trWnTpr1+/VrMM5cgiLKyssDAQLiWR0VFZeHChdnZ2eApw2azx48fD94Q+vr6Bw8eJH/bFRcX9+nTx/znIbmdKScnZ926dZSPURUVlf79+8fFxbHZbLqpIzExEcZpMDY2vnXrltDPZRzH9+7dq62tTflQBpgwmUxVVdUWLVosXLhQqBmfPkDfv38H8yy6urpCA2DAuJ/y8vJhYWH0qcCcnBxgA5CXl1+wYIHkCzhPnz4Nds+eOHGi5LXoXZD9nMrKygMHDkCSzWAwXF1dHz16BIb4+/fv4LOewWAMHTr0+/fv8fHxHh4ejo6OlpaWP2+9//1p1apVhw4dpk6dKqbLVVVV//zzj4ODA5n0KCsrT548OTk5ucY3K5/PT0lJGTp0KOT04Nbq3r17ZGSk+D8a0IrNZt+5c6dz586gooqKira2tpaWlqqqqqen5/Pnz4UKuXz5cocOHaZMmdKmTRsWi6WqqmpoaGhiYmJgYKChoeHp6ZmUlMTj8Q4fPgwsNEKnkH78+AFXO7dt2/bFixeU/uI4funSJRDQyNzc/N69e3SWIxRbDoczYMAAwJ/oq42EVqnfzKysrBYtWkgVC6B+FZBBaTk5Oc7OzmPGjJFB3X6VSu/fvzc3Nx8wYMC9e/e+f/8eFxfXv39/sId5p06d4Iztr1JPCoICLLoaGhotWrSgf9D/qg6IaZfP5798+fLEiRP79u07depUQkKCUEu1UAk4jr969ergwYNXr16lGJAJgigoKDh16tT58+fFrK4UKlZ8ZlVV1a1bt44cOXLo0KHr16/T26VUz8rKOn78+K1bt+iBWID9HFikPTw8Xrx4UVJScvv27RUrVri7u1tbWxsYGIDHLmRvNjY2T548oTMhSqMEQSxevBjUEho1Cyz2OXnypBhwysvLw8PD4+PjJR8RHo+3aNEiwKiOHDlC16r55XA4nIcPH0ZHR799+5by4uRyuXFxcSkpKZKMlyTIVFRUPHr0aPv27Rs2bNizZ4+0XyB8Pj85OfngwYPr16/funXr8+fPpVWMy+W+f/++2rl1/fr1ISEhp0+fFm+mLSoqAk9PgUDw9evXav+wLVu2BAcH79ix4+PHj7D1nJwcsOmPhYWF0LAIBQUFZ86ciY6OpiBMBu3NmzdnzpwRrw+5fHWk3Q8fPjg6OoLNQH7JJ/v3799VVFR+CTeiQCE7p1lZWW3atBk0aJDsqPRrNeHz+QEBAb6+vmQiAoJ4sVgsJpMp+VLNBuqIFASltLR00qRJDAbD2NhYQpf4BlIaia0RATabvWzZMiMjI19fX0qYOC6X8Gj+ggAAFlxJREFUm5qaevPmzd27d8+bN699+/bw23fs2LFCuQ6luc+fPwPHXh8fH8qlhjvNzs4G/rkODg6SuCg2nCZIctNCIDg4GOzjI3Qvqgbqy+XLlzU0NBgMxpo1ayRn4fWoDCIodDARQaFgkp+fP3PmTLrtPDExsVWrVhiGTZw4UQxxp0hriFMpCEpqaiqI0mhoaAgXiDaETkhm3RFYtmyZvLy8g4MD3U2ELJzD4WRmZoaEhADzvpGRkSh/RnKt6mgrwIiioaEhCaEh1611OiEhAWycRF9HXWuZqOLvgEBZWRnwrW600MM8Hm/FihUMBkNJSYn+9G8czBFBoeOMCAoFEx6Pl5+fD82N8GpxcTFwvWpKBOXKlSvAsG9kZCTU+QB2DyV+LQJv374F7ix+fn5C5+8p6uE4Dtx+TU1NJSEoBEFkZWWBULmSLA+mNFe70wMHDmAYZmlp2bS8T3Ac//z5c3JyMgxgU7vuo1p1QWDPnj0KCgra2to1TpvWpRVYt6ysrHv37kwmc926dTCzkROIoNABRwSFjonQnLKyspEjRzIYDMrenEILN2imFBYUPz8/QFCMjY1rDO/RoEoj4eIROHfuHHAmDQwMFOo5S68OBnfcuHESWkR4PN727dtVVVVtbGzI85d0yfWSw+FwOnfurKmpSQm4Xi/CG1TIs2fPTE1NVVVVx4wZQ/9SadCmkXCIQFZWVr9+/RgMRnBwcCOMQnR0tKKioru7O3n9GlSmcRKIoNBxRgSFjonQnPz8fDc3N0NDQ2k3AxYqrS6ZUhAUuLuYmZkZiApVl4ZR3YZD4NGjR2Ctb9euXSXx7Hv+/Lm2traBgUFkZKTkj++cnBxXV1d5efldu3Y1XF+A5CNHjrBYrOnTp9PXBDV003WRn52dDcO0+/j4SI5tXRpFdekIVIf4i4iIUFdXb9u2bUpKCr1APeZUVVW1b99eT09PTGi4emxOlChEUOjIIIJCx0RoTvUCERMTk1mzZkm4Zk2okHrJlIKgwGgHdnZ2Tes9US9INSEh1Ss/x40bB1xfhw4d+vnz57KyMoqvE9hWraCg4NatW46Ojrq6ulu3bpXWmy8+Pl5LS8vFxaVBH/oZGRnGxsZ2dnbS7vb8a4eMx+P9/fffcKkUIii/djgEAoG/v7+ysvLq1aslNBPWQmEQ1ZfJZPr5+f3ahyQiKPThQwSFjgk9h8fj+fv7t23bNiEhgX61kXOkICi2trZgiufPP/9sZC1Rc9IiUFJSsmbNGnt7exaLZWJiMnbs2A0bNpw9e/bKlStXr169ePHijh07AgICevXqZWVlNXny5IcPH1IYjIQtXr582cTEZMqUKRLOJUkoFhYrLCycOXOmoaHh1atXm5YFIjY2FkRTBf8aRFDgmP6qRGVl5ZQpU4yNjRsoDDGO448fP7a2th48eDA9slwj9xoRFDrgiKDQMaHk4DgeHR1taWm5Z88eCQMSUiTU76kUBOXkyZN6eno1LgypX/2QtFojwOVyU1JSzp8/P2PGjC5duhgaGmpoaOj8PCwsLHr06DF58uSjR4++e/euLm6nfD5/165d+vr6q1evbggCERoaamhoGBERUTv+VGv06lgxKyurdevWrVq1AqHWMQxDBKWOkNZL9YyMjCFDhpiamjZEJKfc3FxXV1d3d3dJ5lXrpTtihCCCQgcHERQ6JpScz58/e3h4BAYG1uWlQJFZl1MpCApBEDweryFeQnXpAKorOQJcLreioqLeTR18Pn/Hjh1qamoHDhyoR+EcDiciIsLExCQ8PLxpsZOKiooxY8YoKSmFhoZ6eHggC4rkt2gjlAQBddq1a0eO51bHdnEcz8/PHzhwYJ8+faSNcVfHpkVVRwSFjgwiKHRMyDnFxcUBAQHTp09vuDlQcnOSpKUjKJJIRGV+QwRwHD937pyHh8fdu3frq/s7d+50cXG5evWqtJ4x9aVA7eTweLxDhw5paWlNnjw5Ly8PbtuELCi1w7MhalVHoZ0zZ86UKVPEBDuWqt3v37/7+Pj4+vrKCDshCAIRFPoIIoJCxwTmsNnsjRs3+vn5/fLZSagSQRCIoJDRQOnaI4DjeEJCQj1G9X748GE9hnKvfcekrAniGXbv3j0vL4/NZiOCIiV+jVS8rKzsyZMn9bWXXk5OTlxcXH1JqxcIEEGhw4gICh0TkMNms9euXTthwoSvX7/K1CQJIiiihgzlIwSkRoDL5Xp4eBgYGDx9+rR60yJEUKRGEFWoJwQQQaEDKQsEhcvl5ubm/vjxox5nw+k9lSqnsrIyLCxs6NChlDCGOI5nZ2cfO3ZMwuidUjUqYWFEUCQEChVDCNSAAIfDWb16taKiYnBwMHCARwSlBsjQ5QZDABEUOrSyQFASEhL09fXNzMxevnxJ17Dxc0pLSzdu3Ojs7Lxz584rpOPixYs7d+50d3ffv3//L5xkRwSl8W8J1GIzRADH8WvXrunr63t6esLQuoigNMORbiJdQgSFPlCIoFAwyc/P9/f3V1dXV1BQUPvvoayszGQyTU1NExMTKbUa8xQRlMZEG7XVbBHIzs7u0aOHnp5efn4+7CQiKBAKlGhkBGokKPjPQyAQiPo+BrEcq6qqZMopgQwjjuN8Pl/UEj8cx7lcLln/GgkKwKTGX7IO0qYbyIICdBaDhkAgqKysJK/DBZEklZSUqjeNEnWMGTPm105FIYIi7Q2GyiMEqAhUVVXNnz9fR0eHEgEMERQqUui8sRAQRVCKioqioqL27Nnj7+/v6elpYWHRtm1bSoxmPp//7NmzMWPGqKmpKSsrz549+xduKkQGDMfx3Nzc169f//PPPxs2bPDy8jIyMtq0aRO5DEjz+fyjR49qa2vr6uru3LkTTLmKJyipqal+kh3R0dH0FiXMqV+CkpmZeenSpS1btkyfPr1nz56Ghoa9evWiLMPhcDjXr1/v3bu3goKClpbWzp07RVFSCbvQmMUQQWlMtFFbzROBAwcOqKurL1y4sLy8nNxDRFDIaKB0YyIgiqBkZmZu3bp1zZo1I0eOVFRUBEF6nJ2d4a3L4/EuXLhgY2MDLmEYpqur++nTp8ZUXlRbpaWlw4YN69Onj4GBAVRPX18fTqrCikVFRcOGDQNlrKysvn//DvZgb9OmzaBBg2AxcmLTpk1QpphE3759v3z5Qq4oVbp+CUpiYmJoaOiyZcs8PT0ZDAZQe+LEiXAPnfLy8r///htszQauuru7FxUVSaXzLyyMCMovBB813RwQePHihYmJib29fU5ODqU/iKBQAEGnjYaAKIJCEITg58Hj8e7duwffaidOnAC6PX36VFdX183NzcfHR11dHcMwDw+PX7uvEAQNzDpxOJyioqIFCxaAN66cnBzdpFFZWenr6wt6x2AwPn78KJ6glJWV9evXTwwvAZdcXV0p9gmom4SJ+iUoOI6D0eRyuZs3bwZKamlpgVWEAoFgz549ysrKw4YN8/DwAPuCLVq0CFlQJBwsVAwh0LQRyMvLGzZsmL6+/sOHD+k9QQSFjgnKaRwExBAUsgKzZ88Gb7WBAwdyudyMjIxOnTqtWrUKGFSKiopSUlLg5zi54i9Pl5SUtGnTBsMwJpO5fft2uj6fPn0aN26cmZmZqqoqsHmImeKJj4+3s7MbPXr09evXX7169ebNm7ek48GDB97e3l27dn39+jW9Ialy6pegkJvOz88Hcavl5OT++usvHMdfvnzZrl27kydPEgSB43hWVlZqaqoolx2yKNlJIwuK7IwF0qTpIRAaGqqjo7N//36hqiOCIhQWlNkICEhIUKKjo1VVVTEMs7GxefXq1ZgxYyZOnFhYWNgIGtaxicrKypEjR2IYxmAwli5dKlQaj8cLDg7u3r07CBksiqDgOL5///45c+YIdbUpKSlZsWJFz54937x5I7QVqTIbjqDw+fx169axWCwMw4YNG/bx40cnJ6eNGzdWVlZKpaFMFUYERaaGAynTlBCIj49XVFScMmWKqI21EEFpSsPZvHSVkKB8/PjR0dERwzBtbe0BAwZ06tSpuLi4SSDB4/FWrFgBzD9TpkwRpfPIkSOXLFkCNpcRRVD4fH5ERIQoP5uQkJBu3brV1yYGDUdQCIK4cuUKcDexsbFxd3cfOHCgLOxILGpoJMlHBEUSlFAZhAAVgeLiYnt7e3l5+e7du48WcYwYMQJ687Vo0QKWEmqRpjaAzhECdUBAQoJSVFTk4+MDfReEzlSK16KgoCC2zgfdf0t8o2DOYvv27UBzHx8foW/ie/fuWVlZPXnyBEgTRVBEtVVWVhYWFubk5BQfHy+qDD2/pKTk1atX8SKO8PBwLS0tQ0PD48ePiygS//r169oFb/3w4YO1tTXAxMLCghzygK5nk8hBBKVJDBNSUuYQ+Pbtm6GhIXgWSPs7evRomesPUqh5ISAhQREIBCtWrADzAn379qUEO5cEkqioKGnvf3p54CchSXPkMsePH5eTk8MwzNPTkz4tlZ6e3qFDh5UrV8JIHlIRlLKysuDgYCcnpydPnkgVCSY2NtbKykpDxKGqqspgMJhMpqqqqogiGtbW1s+fPyf3VMI0h8Pp06cPgHf+/PkS1pLlYoigyPLoIN1kFwFEUGR3bJBm0uxmfOnSJeCGYm9vn52dLS14v5CgREREqKmpYRjm6uqakZFB1pzH4y1fvtzW1pY8/SoVQdmxY4ezs3NqaipZrCTp+Ph4Nzc3exFHq1atWCyWvLy8paWliCL2Hh4eb9++laQtepk1a9YAguLl5UW/2uRyEEFpckOGFJYJBCoqKm7fvh0p9oiIiAAT/BiGde3aFZZ99eqVTPQBKdF8EZDQgkIQRGxsrIaGBoZhCgoK79+/b0KQ3Lp1S19fH8Owjh07UjxIHj9+7OTk9PjxY3J3JCQolZWVhw8fbt++fS0mvMjNCU03qA8KQRAHDhwABMXAwACajoRq0iQyEUFpEsOElGySCCAn2SY5bM1CaQkJCpvNnjdvHrBDYBi2e/fuJtT7R48emZubYxhmbW2dkJAANWez2cOHD9+wYQPlDS0JQWGz2du2bbOzs7t7965UMzuwdfGJBiUo2dnZHh4eMP6eVK4z4tX+VVcRQflVyKN2mz8CiKA0/zGW1R5KSFAePXrUt2/f8ePHg8/uIUOGyGqHhOiVkJAAIt6amppCYwmO4/Pnzx8wYAA9vGyNBAXH8YMHD3bq1CkxMbEh2AlBEA1HUAQCwa5du0aOHAmioWAYtnLlSiGoNaksRFCa1HAhZZsUAoigNKnhalbKSkJQKisrfXx89u3bd+PGDUBQNDQ0hC6HkU1oUlNTO3ToANZI37lzhyAIPp9/9uxZExOT5ORkus7iCQqXy42IiHBwcLh//z69Lo7jeXl5dWctDUdQPn/+7OHhER8fD2P2d+jQoWmFZaPDjggKHROUgxCoHwQQQakfHJEU6RGokaAIBIKQkJCBAwdmZWWVlpbCWR6y40VeXl7t1rtKr29tamRnZ3fr1g14z1y9ehXYJ3r37n3t2jWh4sQQlMrKygMHDlhZWf3zzz9CI8EnJCQEBgbW/X3fQASlqqpq6tSpixcvZrPZL1++BMuyVFVVv337BqDAcTw9PV1o14RiJSOZiKDIyEAgNZohAoigNMNBbSJdqpGg3Lhxw9TUFEZHdXNzA0aUoKAg0MXy8vLly5e/fPlSZntcVlbWu3dvoHZ4eLhAIBgxYsTGjRtFvYZFERSBQBAeHt6+fftnz54JpSDl5eV//PFHvTjoNBBB2bp1q7OzM9gTMS8vz8LCAvC2S5cugeH7+vXr9OnThYbKldnxJQgCERRZHh2kW9NGABGUpj1+TVl7CkHh8XiZmZlZWVlgBufTp089e/aEby+CIFauXAne9D169OD+PE6cOOHr6yvLgWUFAsGgQYOA2hs3bgwICPDy8hITnUwoQeHz+bdv3zYzMzt27Fjmf4/vP4+kpKRp06apqKhkZWXV/Y6oF4JSVVX1/fv33NxcPp8vEAiio6PbtGkDVyaXlZV5eXmBXYoWL14sEAgqKiqWLl26ZcsWofSr7p1qOAmIoDQctkjy744Ah8NZu3btyJ9HWFjY7w4H6n8jIkAhKJGRkYaGhsbGxitXroyNjR01atSCBQvIi1xu3bqlrKyMYZi+vv6uXbvWrl3bt2/fDx8+NKLKtWlq8uTJgKDY2dnZ2tomJSWJkUInKFVVVadOndLU1JSXl9fV1TX476Gnp6etrS0vL49h2MCBA8VIlvxSvRCUzZs3a2lp2dnZ7d279/Lly7169Tp48CDUgcfjrVu3jslkggXYJ0+e9PPzmz59OtiQCBZrEglEUJrEMCElmyQCOI6Xl5cX/zxkZMP6JokjUlp6BCgEJSAgALzIFRUVW7Ro4ePjQ4lslpaW1rlzZ7D3nrq6eqdOnZpETJTFixeDfpmYmNQYXohCUAQCwfnz501MTIAE8b8XL16UfhCE1KgXgtKpUyegraqqqpmZ2fLlyymuQtHR0SDONYvF0tLSGjBgAJj9EaKQbGchgiLb44O0QwggBBAC0iNAISgPHjzQ0tJSUVHR1NScOHFieXk5RSSfz9+2bZuOjo6amtrAgQMzMzMpBWTzNDQ0FKzikYRAUAhKWVnZlClT2kpw9OjRo77MDx8+fHB1de3du3diYmKtIT18+LCGhoaKioqOjs7ff/9NtoQBmWw2e/LkyaqqqpqamvPmzav74qNaq1rHioig1BFAVB0hgBBACMgcAhSCQhDE169fr169Kua9yOfz4+Libt++Tfkcl7m+kRTat2+fvLx8aGhoZWUlKVt4kkJQhBdqIrkJCQnXrl2jmMHIunM4nKioqGfPnoGdnMmXmlAaEZQmNFhIVYQAQgAhIBECdIIiUbUmVSgnJ8fb23vNmjV0g5DQfjQngiK0g80vExGU5jemqEcIAYTA745AsycoVVVVq1ev9vPzk3ykEUGRHCsZKYkIiowMBFIDIYAQQAjUGwLNm6CUlZVt2LBh9OjR6enpkkOGCIrkWMlISURQZGQgkBoIAYQAQqDeEGjGBKW4uDgwMNDNzS0lJUUqvBBBkQouWSiMCIosjALSASGAEEAI1CcCzYmg3L9/v2PHjosXLy4vL+dwOIGBgU5OTrXw5EUEpT7vsEaRhQhKo8CMGkEIIAQQAo2IQLMhKPHx8cbGxhiGGRoa7t69e8iQIQMGDEhNTa0Floig1AK0X1sFEZRfiz9qHSGAEEAI1D8CzYagnDp1Sl1dHcQlU1RUnDp1akpKSu0CeyCCUv/3WQNLRASlgQFG4hECCAGEQKMj0GwIyo8fP9zd3Vkslqur67179+hBySSHFhEUybGSkZKIoMjIQCA1EAIIAYRAvSHQbAgKQRBgy4jaWU3IgCKCQkajSaQRQWkSw4SURAggBBACUiDQnAiKFN0WWxQRFLHwyOJFRFBkcVSQTggBhABCoC4IIIJCRw8RFDomMp6DCIqMDxBSDyGAEEAISI0AIih0yBBBoWMi4zmIoMj4ACH1EAIIAYSA1AhkZmbq6OhERUVJXbP5VsjJyXF0dBw2bFjz7WJz6xkiKM1tRFF/EAIIAYQAn89PT0+vqKhAUEAE+Hx+Zmbmjx8/YA5KyDgCiKDI+AAh9RACCAGEAEIAIfA7IoAIyu846qjPCAGEAEIAIYAQkHEE/h8c1SOMOoUU/gAAAABJRU5ErkJggg==;" vertex="1" parent="1">
          <mxGeometry x="572.24" y="360" width="235.52" height="40" as="geometry" />
        </mxCell>
      </root>
    </mxGraphModel>
  </diagram>
</mxfile>
